<svg width="21" height="16" viewBox="0 0 21 16" fill="none" xmlns="http://www.w3.org/2000/svg">
<path d="M1.61258 6.20874L0.806289 6.9779L0 6.20874L0.806289 5.43959L1.61258 6.20874ZM21 14.9121C21 15.2006 20.8798 15.4773 20.666 15.6814C20.4521 15.8854 20.162 16 19.8596 16C19.5571 16 19.267 15.8854 19.0532 15.6814C18.8393 15.4773 18.7191 15.2006 18.7191 14.9121H21ZM6.50847 12.4175L0.806289 6.9779L2.41887 5.43959L8.12105 10.8792L6.50847 12.4175ZM0.806289 5.43959L6.50847 0L8.12105 1.53831L2.41887 6.9779L0.806289 5.43959ZM1.61258 5.12083H13.0169V7.29666H1.61258V5.12083ZM21 12.7362V14.9121H18.7191V12.7362H21ZM13.0169 5.12083C15.1342 5.12083 17.1647 5.92316 18.6618 7.35133C20.1589 8.7795 21 10.7165 21 12.7362H18.7191C18.7191 11.2936 18.1184 9.91 17.049 8.88988C15.9796 7.86976 14.5293 7.29666 13.0169 7.29666V5.12083Z" fill="#FAFAFA"/>
</svg>
