<svg width="41" height="41" viewBox="0 0 41 41" fill="none" xmlns="http://www.w3.org/2000/svg">
<path d="M18.3643 7.77275L13.0948 2.61551C12.063 1.60544 10.7484 0.917539 9.31708 0.638821C7.8858 0.360102 6.40221 0.503088 5.05397 1.04969C3.70574 1.59629 2.55343 2.52196 1.74281 3.70959C0.932196 4.89722 0.49969 6.29346 0.500001 7.72169V40.5M31.2774 13.1887L33.7348 15.5954M34.3487 19.808L36.813 22.2147M38.0426 16.198L40.5 18.6047M30.6617 23.4198L33.1209 25.8265M26.973 27.0299L29.4322 29.4366M23.8983 20.4106L26.3574 22.8156M27.587 16.7971L30.0478 19.2072M22.6687 3.56015L22.9383 3.82397C24.7452 5.59243 27.1525 6.65048 29.7035 6.79747L30.9696 6.87066L31.2774 7.17193L17.7487 20.4106L17.4426 20.1093L17.3678 18.8702C17.2176 16.3735 16.1365 14.0176 14.3296 12.2492L14.06 11.9854L22.6687 3.56015Z" stroke="#FAFAFA"/>
</svg>
