<svg width="41" height="41" viewBox="0 0 41 41" fill="none" xmlns="http://www.w3.org/2000/svg">
<path d="M1.92857 0.5C1.54969 0.5 1.18633 0.65051 0.918419 0.918419C0.65051 1.18633 0.5 1.54969 0.5 1.92857V39.0714C0.5 39.4657 0.66 39.8229 0.918572 40.0814L17.6429 23.3571V1.92857C17.6429 1.54969 17.4923 1.18633 17.2244 0.918419C16.9565 0.65051 16.5932 0.5 16.2143 0.5H1.92857Z" stroke="#FAFAFA" stroke-linecap="round" stroke-linejoin="round"/>
<path d="M11.9289 6.21436H17.6432M11.9289 12.6429H17.6432M11.9289 19.0715H17.6432M21.9289 29.0715V23.3572M28.3575 29.0715V23.3572M34.7861 29.0715V23.3572M40.5004 39.0715C40.5004 39.4504 40.3499 39.8137 40.082 40.0816C39.814 40.3496 39.4507 40.5001 39.0718 40.5001H1.92894C1.5501 40.5 1.18679 40.3494 0.918945 40.0815L17.6432 23.3572H39.0718C39.4507 23.3572 39.814 23.5077 40.082 23.7756C40.3499 24.0435 40.5004 24.4069 40.5004 24.7858V39.0715Z" stroke="#FAFAFA" stroke-linecap="round" stroke-linejoin="round"/>
</svg>
