<svg width="80" height="80" viewBox="0 0 80 80" fill="none" xmlns="http://www.w3.org/2000/svg">
<path d="M34.813 31.2804L30.25 21.2966C29.08 18.449 27.52 16.5795 24.4 16.5795M24.4 16.5795H10.75C4.081 16.5795 1 18.5269 1 26.3166C1.325 33.3014 4.58367 40.4506 9.29833 45.6265M24.4 16.5795C24.4 10.5424 25.336 1 16.6 1C8.8 1 6.85 9.78076 6.85 16.9084M48.6667 45.1851L58.681 49.6858C61.528 50.8543 63.4 52.4122 63.4 55.5281M63.4 55.5281V69.1601C63.4 75.8203 61.45 78.8973 53.65 78.8973C46.656 78.5684 39.506 75.3313 34.3277 70.6229M63.4 55.5281C69.445 55.5281 79 54.5933 79 63.3178C79 71.1076 70.2077 73.055 63.0707 73.055M11.14 44.2763L33.721 31.7694C41.092 27.6798 52.402 38.7023 48.19 46.2237L35.632 68.8485C27.52 83.4153 -3.719 52.5334 11.14 44.2763Z" stroke="#173A31" stroke-width="2" stroke-linecap="round" stroke-linejoin="round"/>
</svg>
