<svg width="41" height="41" viewBox="0 0 41 41" fill="none" xmlns="http://www.w3.org/2000/svg">
<path d="M17.84 16.0489L15.5 10.9222C14.9 9.46 14.1 8.5 12.5 8.5M12.5 8.5H5.5C2.08 8.5 0.5 9.5 0.5 13.5C0.666667 17.0867 2.33778 20.7578 4.75556 23.4156M12.5 8.5C12.5 5.4 12.98 0.5 8.5 0.5C4.5 0.5 3.5 5.00889 3.5 8.66889M24.9444 23.1889L30.08 25.5C31.54 26.1 32.5 26.9 32.5 28.5M32.5 28.5V35.5C32.5 38.92 31.5 40.5 27.5 40.5C23.9133 40.3311 20.2467 38.6689 17.5911 36.2511M32.5 28.5C35.6 28.5 40.5 28.02 40.5 32.5C40.5 36.5 35.9911 37.5 32.3311 37.5M5.7 22.7222L17.28 16.3C21.06 14.2 26.86 19.86 24.7 23.7222L18.26 35.34C14.1 42.82 -1.92 26.9622 5.7 22.7222Z" stroke="#FAFAFA" stroke-linecap="round" stroke-linejoin="round"/>
</svg>
