<svg width="41" height="41" viewBox="0 0 41 41" fill="none" xmlns="http://www.w3.org/2000/svg">
<path d="M15.2826 32.6739V21.3696M15.2826 21.3696V9.19565H23.1087C23.908 9.19565 24.6996 9.3531 25.4381 9.65899C26.1766 9.96489 26.8476 10.4133 27.4128 10.9785C27.978 11.5437 28.4264 12.2147 28.7323 12.9532C29.0382 13.6917 29.1957 14.4833 29.1957 15.2826C29.1957 16.082 29.0382 16.8735 28.7323 17.612C28.4264 18.3505 27.978 19.0215 27.4128 19.5867C26.8476 20.152 26.1766 20.6003 25.4381 20.9062C24.6996 21.2121 23.908 21.3696 23.1087 21.3696H15.2826ZM20.5 40.5C9.45478 40.5 0.5 31.5452 0.5 20.5C0.5 9.45478 9.45478 0.5 20.5 0.5C31.5452 0.5 40.5 9.45478 40.5 20.5C40.5 31.5452 31.5452 40.5 20.5 40.5Z" stroke="#FAFAFA"/>
</svg>
