<svg width="41" height="41" viewBox="0 0 41 41" fill="none" xmlns="http://www.w3.org/2000/svg">
<path d="M16.6904 32.6739V40.5M16.6904 32.6739C16.6904 25.7174 22.7227 15.62 30.1436 9.97304L32.8807 7.8913V7.45652H23.4103M16.6904 32.6739C16.6904 25.7174 10.658 15.62 3.23712 9.97304L0.5 7.8913V7.45652H23.4103M16.6904 40.5H7.16662M16.6904 40.5H26.2141M23.4103 7.45652C23.5942 5.9551 24.2501 4.53436 25.2988 3.36579C26.3475 2.19723 27.7443 1.3308 29.3205 0.8711C30.8967 0.411396 32.5849 0.378068 34.1814 0.775138C35.7779 1.17221 37.2143 1.9827 38.3174 3.10878C39.4205 4.23487 40.143 5.6284 40.3978 7.12116C40.6526 8.61392 40.4286 10.1421 39.7531 11.5212C39.0776 12.9004 37.9793 14.0715 36.5908 14.8932C35.2023 15.715 33.583 16.1522 31.9284 16.1522M8.119 14.413H25.2617" stroke="#FAFAFA"/>
</svg>
