<svg width="41" height="41" viewBox="0 0 41 41" fill="none" xmlns="http://www.w3.org/2000/svg">
<path d="M20.5026 40.5V14.4986M13.8422 32.5036C10.161 32.5036 7.17732 29.7454 7.17732 26.4333C5.46866 26.2138 3.88969 25.4887 2.68917 24.3723C1.48865 23.2559 0.734822 21.8117 0.546457 20.2671C0.358092 18.7225 0.745895 17.1654 1.64877 15.8411C2.55164 14.5168 3.91826 13.5006 5.53331 12.9525C4.99068 11.8632 4.82134 10.6528 5.04697 9.47635C5.2726 8.29987 5.88294 7.21072 6.79991 6.34824C7.71688 5.48577 8.8988 4.88917 10.1945 4.63476C11.4901 4.38036 12.8406 4.47972 14.0732 4.92012C14.4587 3.65028 15.2971 2.52972 16.4594 1.73102C17.6217 0.932316 19.0435 0.499773 20.5057 0.5C21.9679 0.500227 23.3895 0.933213 24.5515 1.73227C25.7135 2.53134 26.5515 3.65216 26.9364 4.92212C28.169 4.48171 29.5195 4.38236 30.8152 4.63676C32.1109 4.89117 33.2928 5.48777 34.2098 6.35025C35.1267 7.21272 35.7371 8.30187 35.9627 9.47835C36.1883 10.6548 36.019 11.8652 35.4764 12.9545C37.0887 13.5042 38.4525 14.5205 39.3534 15.8439C40.2544 17.1672 40.6414 18.7225 40.4538 20.2655C40.2661 21.8084 39.5143 23.2514 38.3166 24.3679C37.1189 25.4843 35.5431 26.2108 33.8368 26.4333C33.8368 29.7454 30.8532 32.5036 27.1719 32.5036M20.5026 26.4993L26.0567 21.499M20.5026 22.4991L14.9486 17.4988M16.0594 40.5H24.9459" stroke="#FAFAFA" stroke-linecap="round" stroke-linejoin="round"/>
</svg>
