<svg width="41" height="41" viewBox="0 0 41 41" fill="none" xmlns="http://www.w3.org/2000/svg">
<path d="M0.5 32.511L16.9346 28.0713L28.6741 34.5824L40.5 29.5516M3.62973 37.7392L16.673 34.3837L28.673 40.4999L37.7162 36.7507" stroke="#FAFAFA" stroke-linecap="round" stroke-linejoin="round"/>
<path d="M27.0213 10.8228H13.6656C12.8201 10.8228 12.1348 11.6003 12.1348 12.5594V15.0846C12.1348 16.0437 12.8201 16.8212 13.6656 16.8212H27.0213C27.8667 16.8212 28.5521 16.0437 28.5521 15.0846V12.5594C28.5521 11.6003 27.8667 10.8228 27.0213 10.8228Z" stroke="#FAFAFA" stroke-linecap="round" stroke-linejoin="round"/>
<path d="M15.2837 16.8213L13.1777 35.2839M25.5442 16.8213L26.968 39.6316M13.848 4.79004L20.1961 0.5L26.5442 4.84155M17.0221 2.64625V10.8228M23.8664 3.00927V10.8216" stroke="#FAFAFA" stroke-linecap="round" stroke-linejoin="round"/>
</svg>
