<svg width="89" height="82" viewBox="0 0 89 82" fill="none" xmlns="http://www.w3.org/2000/svg">
<path d="M33.1522 65.1663V42.6214M33.1522 42.6214V18.3422H50.1739C51.9125 18.3422 53.6341 18.6562 55.2403 19.2663C56.8466 19.8764 58.306 20.7706 59.5354 21.8978C60.7648 23.0251 61.7399 24.3634 62.4053 25.8362C63.0706 27.309 63.413 28.8876 63.413 30.4818C63.413 32.076 63.0706 33.6546 62.4053 35.1274C61.7399 36.6003 60.7648 37.9385 59.5354 39.0658C58.306 40.1931 56.8466 41.0872 55.2403 41.6973C53.6341 42.3074 51.9125 42.6214 50.1739 42.6214H33.1522ZM44.5 80.7743C20.4767 80.7743 1 62.9153 1 40.8872C1 18.859 20.4767 1 44.5 1C68.5233 1 88 18.859 88 40.8872C88 62.9153 68.5233 80.7743 44.5 80.7743Z" stroke="#173A31" stroke-width="2"/>
</svg>
