<svg width="255" height="44" viewBox="0 0 255 44" fill="none" xmlns="http://www.w3.org/2000/svg">
<path d="M20.6235 0L25.2537 14.9813H40.2375L28.1154 24.2402L32.7456 39.2214L20.6235 29.9625L8.50129 39.2214L13.1315 24.2402L1.00938 14.9813H15.9932L20.6235 0Z" fill="#173A31"/>
<path d="M73.8705 6.10352e-05L78.5008 14.9813H93.4846L81.3624 24.2402L85.9927 39.2215L73.8705 29.9626L61.7484 39.2215L66.3786 24.2402L54.2565 14.9813H69.2403L73.8705 6.10352e-05Z" fill="#173A31"/>
<path d="M127.118 6.10352e-05L131.748 14.9813H146.732L134.61 24.2402L139.24 39.2215L127.118 29.9626L114.995 39.2215L119.626 24.2402L107.504 14.9813H122.487L127.118 6.10352e-05Z" fill="#173A31"/>
<path d="M180.365 6.10352e-05L184.995 14.9813H199.979L187.857 24.2402L192.487 39.2215L180.365 29.9626L168.243 39.2215L172.873 24.2402L160.751 14.9813H175.734L180.365 6.10352e-05Z" fill="#173A31"/>
<path d="M233.611 6.10352e-05L238.241 14.9813H253.225L241.103 24.2402L245.733 39.2215L233.611 29.9626L221.489 39.2215L226.119 24.2402L213.997 14.9813H228.981L233.611 6.10352e-05Z" fill="#173A31"/>
</svg>
